<svg width="54" height="54" viewBox="0 0 54 54" fill="none" xmlns="http://www.w3.org/2000/svg">
<circle cx="27" cy="27" r="27" fill="#1FCAF0"/>
<path d="M27 4C14.2733 4 4 14.2733 4 27C4 39.7267 14.2733 50 27 50C39.7267 50 50 39.7267 50 27C50 14.2733 39.7267 4 27 4ZM27 6.7025C29.3 6.7025 31.5233 7.12417 33.5742 7.83333L27.2492 21.4992C27.1725 21.5758 27.1725 21.7483 27 21.7483C26.8275 21.7483 26.8275 21.5758 26.7508 21.4992L20.4258 7.83333C22.4767 7.12417 24.7 6.72167 27 6.72167V6.7025ZM17.225 9.25167L24.5467 25.0258C24.7 25.3517 24.8725 25.4475 25.0833 25.4475H28.9167C29.1467 25.4475 29.3 25.3517 29.4725 25.0258L36.6983 9.25167C39.7267 10.9767 42.3333 13.4492 44.1733 16.4008L33.9 36.2767C33.8233 36.4492 33.7083 36.5258 33.6508 36.5258C33.4975 36.5258 33.4975 36.3725 33.4017 36.2767L29.4725 27.575C29.3 27.2492 29.1467 27.1725 28.9167 27.1725H25.0833C24.8725 27.1725 24.7 27.2492 24.5275 27.575L20.5983 36.2767C20.5025 36.3725 20.5217 36.5258 20.3492 36.5258C20.1767 36.5258 20.1767 36.3725 20.1 36.2767L9.75 16.4008C11.5517 13.4492 14.1967 10.9767 17.225 9.25167ZM7.94833 20.3492L19.7742 43.3492C19.9275 43.675 20.1 43.9242 20.5217 43.9242C20.9242 43.9242 21.0775 43.675 21.25 43.3492L26.7508 31.1017C26.8275 30.9483 26.9233 30.8333 27 30.8333C27.1725 30.8333 27.1725 31.025 27.2492 31.1017L32.8267 43.3492C32.9992 43.675 33.1525 43.9242 33.5742 43.9242C33.9767 43.9242 34.1492 43.675 34.3025 43.3492L46.1667 20.3492C46.8758 22.4 47.2975 24.6233 47.2975 27C47.2017 38.0975 38.0975 47.2975 27 47.2975C15.9025 47.2975 6.79833 38.0975 6.79833 27C6.79833 24.7 7.20083 22.4958 7.94833 20.3492Z" fill="white"/>
</svg>
