<svg width="40" height="34" viewBox="0 0 40 34" fill="none" xmlns="http://www.w3.org/2000/svg">
<g filter="url(#filter0_f_33_42)">
<path d="M33.7225 29.5C34.8387 27.5666 35.5632 25.4323 35.8546 23.219C36.146 21.0056 35.9986 18.7565 35.4208 16.6001C34.843 14.4437 33.8461 12.4222 32.487 10.6511C31.128 8.87994 29.4334 7.39382 27.5 6.27759C25.5666 5.16135 23.4323 4.43685 21.219 4.14546C19.0056 3.85406 16.7565 4.00147 14.6001 4.57928C12.4437 5.15709 10.4222 6.15397 8.65107 7.51301C6.87994 8.87206 5.39382 10.5666 4.27759 12.5L8.95463 15.2003C9.71626 13.8811 10.7303 12.7249 11.9387 11.7976C13.1472 10.8703 14.5265 10.1901 15.9979 9.79585C17.4692 9.4016 19.0038 9.30102 20.514 9.49984C22.0243 9.69867 23.4805 10.193 24.7997 10.9546C26.1189 11.7163 27.2752 12.7303 28.2025 13.9387C29.1298 15.1472 29.8099 16.5265 30.2042 17.9979C30.5984 19.4692 30.699 21.0038 30.5002 22.514C30.3014 24.0243 29.807 25.4805 29.0454 26.7997L33.7225 29.5Z" fill="#F6B5CC"/>
</g>
<defs>
<filter id="filter0_f_33_42" x="0.277588" y="0" width="39.7224" height="33.5" filterUnits="userSpaceOnUse" color-interpolation-filters="sRGB">
<feFlood flood-opacity="0" result="BackgroundImageFix"/>
<feBlend mode="normal" in="SourceGraphic" in2="BackgroundImageFix" result="shape"/>
<feGaussianBlur stdDeviation="2" result="effect1_foregroundBlur_33_42"/>
</filter>
</defs>
</svg>
