<svg width="284" height="284" viewBox="0 0 284 284" fill="none" xmlns="http://www.w3.org/2000/svg">
<path fill-rule="evenodd" clip-rule="evenodd" d="M110.43 205.428C100.182 195.43 102.032 179.072 95.8663 166.154C89.7881 153.42 74.2621 144.762 74.745 130.665C75.237 116.303 87.913 105.77 98.2758 95.8164C108.614 85.8861 119.791 75.8812 133.976 73.7722C148.221 71.6544 161.207 79.5641 174.76 84.4453C191.07 90.3194 213.765 89.4321 221.081 105.143C228.419 120.9 212.782 137.607 207.172 154.05C202.618 167.399 199.803 180.874 191.384 192.191C181.551 205.406 171.406 221.324 155.142 223.984C138.822 226.652 122.269 216.978 110.43 205.428Z" fill="url(#paint0_linear_3137_3)"/>
<path fill-rule="evenodd" clip-rule="evenodd" d="M146.318 212.81C132.445 209.276 125.867 194.184 114.069 186.08C102.438 178.091 84.6632 178.356 78.0329 165.906C71.2781 153.223 76.9892 137.763 80.9868 123.961C84.9749 110.192 89.6516 95.9392 100.882 87.0202C112.16 78.0635 127.361 78.4205 141.539 75.8712C158.601 72.8032 177.811 60.6874 192.003 70.6356C206.236 80.6129 201.047 102.899 204.411 119.944C207.141 133.783 211.441 146.859 209.808 160.87C207.901 177.231 207.073 196.089 194.318 206.524C181.519 216.995 162.347 216.894 146.318 212.81Z" fill="url(#paint1_linear_3137_3)" fill-opacity="0.5"/>
<circle cx="134.529" cy="135.726" r="18" stroke="white" stroke-width="3"/>
<circle cx="160.529" cy="135.726" r="18" stroke="white" stroke-width="3"/>
<circle cx="147.529" cy="152.726" r="18" stroke="white" stroke-width="3"/>
<defs>
<linearGradient id="paint0_linear_3137_3" x1="107.384" y1="207.533" x2="176.917" y2="76.7665" gradientUnits="userSpaceOnUse">
<stop stop-color="#6D678E"/>
<stop offset="1" stop-color="#F6B5CC"/>
</linearGradient>
<linearGradient id="paint1_linear_3137_3" x1="144.733" y1="216.157" x2="139.567" y2="68.1429" gradientUnits="userSpaceOnUse">
<stop stop-color="#6D678E"/>
<stop offset="1" stop-color="#F6B5CC"/>
</linearGradient>
</defs>
</svg>
