<svg width="246" height="246" viewBox="0 0 246 246" fill="none" xmlns="http://www.w3.org/2000/svg">
<path fill-rule="evenodd" clip-rule="evenodd" d="M121.482 51.8955C135.224 55.9118 141.271 71.2239 152.78 79.7347C164.125 88.1247 181.898 88.4792 188.09 101.153C194.398 114.064 188.151 129.316 183.675 142.97C179.209 156.591 174.038 170.672 162.503 179.194C150.92 187.752 135.741 186.865 121.482 188.918C104.323 191.389 84.7019 202.827 70.8661 192.39C56.9897 181.922 62.9526 159.83 60.186 142.679C57.9398 128.753 54.0987 115.535 56.2196 101.59C58.6964 85.305 60.181 66.4871 73.2926 56.5033C86.4492 46.4852 105.606 47.2554 121.482 51.8955Z" fill="url(#paint0_linear_3136_2)"/>
<path fill-rule="evenodd" clip-rule="evenodd" d="M86.3285 62.2262C100.238 58.8334 113.13 69.0706 127.353 70.6869C141.373 72.2802 156.942 63.7008 168.641 71.5805C180.56 79.608 182.776 95.9396 185.726 110.003C188.669 124.032 191.231 138.812 185.503 151.959C179.75 165.162 166.161 171.984 154.84 180.891C141.215 191.61 129.942 211.327 112.741 209.206C95.4897 207.079 89.6079 184.965 78.6361 171.495C69.7281 160.558 59.7923 151.031 54.6566 137.894C48.6592 122.553 40.536 105.513 46.899 90.3114C53.2839 75.0572 70.2593 66.1458 86.3285 62.2262Z" fill="url(#paint1_linear_3136_2)" fill-opacity="0.5"/>
<path d="M125.626 106.001C124.516 106.009 123.414 106.063 122.25 106.374C120.982 106.717 119.779 107.264 118.688 107.994C117.156 107.097 115.672 106.36 114.25 106.186C112.484 105.969 110.844 106.087 108.938 106.126C106.678 106.172 105.204 107.322 102.812 108.243C100.422 109.16 97.344 110.049 93 110.049H91V129.235L92.126 129.795L95.812 131.603L108.938 146.178L109 146.24C110.5 147.719 112.524 148.086 114.312 147.984C116.102 147.885 117.782 147.362 119.124 146.553C122.078 144.777 130.124 139.202 130.124 139.202L130.312 139.076L130.438 138.952C131.39 138.01 131.868 136.859 132.188 135.652L139.874 131.788L145.624 129.859L147 129.42V110.049H145C141.638 110.072 138.304 109.437 135.188 108.18C132.796 107.249 131.344 106.111 129.06 106.063C127.84 106.039 126.732 105.993 125.624 106.001H125.626ZM125.686 109.988C126.586 109.98 127.626 110.027 128.938 110.049C129.148 110.057 131.07 110.875 133.75 111.919C136.016 112.806 139.164 113.593 143 113.849V126.556L138.374 128.115H138.25L138.124 128.175L132.064 131.228C131.742 130.303 131.232 129.455 130.564 128.737L130.438 128.549L121.938 118.148L120.688 116.589L119.124 117.835L113.75 122.197C111.946 123.442 110.484 123.084 109 122.384C108.57 122.181 108.594 122.119 108.25 121.886L117.376 114.347L117.5 114.223C120.21 111.544 121.876 110.617 123.312 110.237C124.032 110.041 124.79 109.996 125.688 109.988H125.686ZM111.752 110.049C112.419 110.024 113.088 110.045 113.752 110.111C114.276 110.173 114.87 110.617 115.378 110.797C115.174 110.984 115.026 111.092 114.814 111.295L114.69 111.421L103.752 120.45L102.064 121.822L103.564 123.379C103.564 123.379 105.01 124.937 107.252 125.996C109.494 127.054 112.956 127.654 116.064 125.498L116.19 125.372L120.064 122.197L127.44 131.228L127.502 131.354L127.564 131.414C128.884 132.715 128.854 134.763 127.564 136.088C127.548 136.102 127.58 136.134 127.564 136.148C127.548 136.158 127.284 136.313 127.252 136.337L124.626 132.785L121.376 135.153L123.94 138.578C122.9 139.279 122.432 139.646 121.314 140.386L118.628 136.772L115.376 139.14L117.94 142.564C117.712 142.704 117.244 143.017 117.064 143.126C116.432 143.507 115.212 143.936 114.126 143.998C113.104 144.053 112.322 143.818 111.94 143.499L111.878 143.437L98.502 128.675L98.252 128.362L95 126.743V113.849C98.82 113.599 101.992 112.844 104.25 111.981C106.922 110.96 108.83 110.119 109.062 110.111L111.75 110.049H111.752Z" fill="white"/>
<defs>
<linearGradient id="paint0_linear_3136_2" x1="123.183" y1="48.6063" x2="123.183" y2="196.71" gradientUnits="userSpaceOnUse">
<stop stop-color="#6D678E"/>
<stop offset="1" stop-color="#F6B5CC"/>
</linearGradient>
<linearGradient id="paint1_linear_3136_2" x1="86.1571" y1="58.5272" x2="160.209" y2="186.789" gradientUnits="userSpaceOnUse">
<stop stop-color="#6D678E"/>
<stop offset="1" stop-color="#F6B5CC"/>
</linearGradient>
</defs>
</svg>
