<svg width="278" height="278" viewBox="0 0 278 278" fill="none" xmlns="http://www.w3.org/2000/svg">
<path fill-rule="evenodd" clip-rule="evenodd" d="M184.568 85.3191C192.12 97.4816 186.404 112.92 189.294 126.939C192.143 140.759 205.141 152.885 201.294 166.456C197.374 180.281 182.543 187.469 170.097 194.649C157.68 201.812 144.431 208.847 130.154 207.494C115.816 206.136 105.104 195.345 93.116 187.357C78.6891 177.745 56.4431 173.167 53.1058 156.161C49.7587 139.104 68.9438 126.633 78.3309 112.013C85.9523 100.144 91.9143 87.737 102.801 78.768C115.514 68.2941 129.179 55.2716 145.606 56.5878C162.09 57.9084 175.842 71.2677 184.568 85.3191Z" fill="url(#paint0_linear_3137_4)"/>
<path fill-rule="evenodd" clip-rule="evenodd" d="M151.494 69.5501C164.117 76.3067 166.885 92.5351 176.397 103.231C185.775 113.775 203.095 117.777 206.548 131.453C210.066 145.386 200.816 159.027 193.627 171.468C186.455 183.88 178.499 196.596 165.458 202.564C152.362 208.556 137.69 204.567 123.314 203.644C106.014 202.533 84.4595 209.691 73.066 196.632C61.639 183.534 72.0179 163.14 72.8379 145.786C73.5036 131.697 72.4632 117.971 77.4067 104.76C83.1797 89.3328 88.5027 71.2225 103.387 64.1487C118.323 57.0505 136.912 61.7441 151.494 69.5501Z" fill="url(#paint1_linear_3137_4)" fill-opacity="0.5"/>
<path fill-rule="evenodd" clip-rule="evenodd" d="M115 151.5C115 151.102 115.158 150.72 115.439 150.439C115.721 150.158 116.102 150 116.5 150H161.5C161.898 150 162.279 150.158 162.561 150.439C162.842 150.72 163 151.102 163 151.5C163 151.898 162.842 152.279 162.561 152.56C162.279 152.842 161.898 153 161.5 153H116.5C116.102 153 115.721 152.842 115.439 152.56C115.158 152.279 115 151.898 115 151.5ZM124.36 108.525C124.501 108.36 124.676 108.228 124.872 108.137C125.069 108.047 125.283 108 125.5 108H152.5C152.717 108 152.931 108.047 153.128 108.137C153.324 108.228 153.499 108.36 153.64 108.525L161.917 118.182C162.616 118.997 163 120.036 163 121.11V121.5H160V121.11C160 120.752 159.872 120.406 159.64 120.135L151.81 111H126.19L118.36 120.135C118.128 120.406 118 120.752 118 121.11V121.5H115V121.11C115 120.036 115.384 118.997 116.083 118.182L124.363 108.522L124.36 108.525Z" fill="white"/>
<path d="M122.125 125.625C124.405 125.625 126.25 123.777 126.25 121.5H129.25C129.25 122.594 129.685 123.643 130.458 124.417C131.232 125.19 132.281 125.625 133.375 125.625C134.469 125.625 135.518 125.19 136.292 124.417C137.065 123.643 137.5 122.594 137.5 121.5H140.5C140.5 122.594 140.935 123.643 141.708 124.417C142.482 125.19 143.531 125.625 144.625 125.625C145.719 125.625 146.768 125.19 147.542 124.417C148.315 123.643 148.75 122.594 148.75 121.5H151.75C151.75 122.594 152.185 123.643 152.958 124.417C153.732 125.19 154.781 125.625 155.875 125.625C156.969 125.625 158.018 125.19 158.792 124.417C159.565 123.643 160 122.594 160 121.5H163C163 122.985 162.536 124.433 161.673 125.641C160.811 126.849 159.592 127.758 158.187 128.24C156.782 128.722 155.262 128.753 153.839 128.329C152.416 127.904 151.161 127.046 150.25 125.874C149.584 126.731 148.731 127.425 147.757 127.902C146.782 128.378 145.71 128.626 144.625 128.625C143.54 128.626 142.468 128.379 141.493 127.902C140.518 127.425 139.665 126.731 139 125.874C138.335 126.731 137.482 127.425 136.507 127.902C135.532 128.379 134.46 128.626 133.375 128.625C132.29 128.626 131.218 128.379 130.243 127.902C129.268 127.425 128.415 126.731 127.75 125.874C126.839 127.046 125.584 127.904 124.161 128.329C122.738 128.753 121.218 128.722 119.813 128.24C118.408 127.758 117.189 126.849 116.327 125.641C115.464 124.433 115 122.985 115 121.5H118C118 123.78 119.848 125.625 122.125 125.625Z" fill="white"/>
<path d="M129.25 121.5C129.25 121.898 129.092 122.279 128.811 122.56C128.529 122.842 128.148 123 127.75 123C127.352 123 126.971 122.842 126.689 122.56C126.408 122.279 126.25 121.898 126.25 121.5C126.25 121.102 126.408 120.72 126.689 120.439C126.971 120.158 127.352 120 127.75 120C128.148 120 128.529 120.158 128.811 120.439C129.092 120.72 129.25 121.102 129.25 121.5ZM140.5 121.5C140.5 121.898 140.342 122.279 140.061 122.56C139.779 122.842 139.398 123 139 123C138.602 123 138.221 122.842 137.939 122.56C137.658 122.279 137.5 121.898 137.5 121.5C137.5 121.102 137.658 120.72 137.939 120.439C138.221 120.158 138.602 120 139 120C139.398 120 139.779 120.158 140.061 120.439C140.342 120.72 140.5 121.102 140.5 121.5ZM151.75 121.5C151.75 121.898 151.592 122.279 151.311 122.56C151.029 122.842 150.648 123 150.25 123C149.852 123 149.471 122.842 149.189 122.56C148.908 122.279 148.75 121.898 148.75 121.5C148.75 121.102 148.908 120.72 149.189 120.439C149.471 120.158 149.852 120 150.25 120C150.648 120 151.029 120.158 151.311 120.439C151.592 120.72 151.75 121.102 151.75 121.5Z" fill="white"/>
<path fill-rule="evenodd" clip-rule="evenodd" d="M121 128.538V126H118V127.311C118.873 127.932 119.896 128.361 121 128.538ZM118 130.749C118.933 131.169 119.941 131.445 121 131.562V150H118V130.749ZM157 131.562C158.036 131.449 159.048 131.175 160 130.752V150H157V131.562ZM160 127.311C159.127 127.932 158.104 128.361 157 128.538V126H160V127.311ZM124 133.5C124 133.102 124.158 132.72 124.439 132.439C124.721 132.158 125.102 132 125.5 132H137.5C137.898 132 138.279 132.158 138.561 132.439C138.842 132.72 139 133.102 139 133.5V150H136V135H127V150H124V133.5ZM142 133.5C142 133.102 142.158 132.72 142.439 132.439C142.721 132.158 143.102 132 143.5 132H152.5C152.898 132 153.279 132.158 153.561 132.439C153.842 132.72 154 133.102 154 133.5V145.5C154 145.898 153.842 146.279 153.561 146.56C153.279 146.842 152.898 147 152.5 147H143.5C143.102 147 142.721 146.842 142.439 146.56C142.158 146.279 142 145.898 142 145.5V133.5ZM145 135V144H151V135H145Z" fill="white"/>
<path d="M117.571 159L118.373 161.418H120.968L118.869 162.913L119.671 165.332L117.571 163.837L115.472 165.332L116.274 162.913L114.175 161.418H116.77L117.571 159Z" fill="white"/>
<path d="M128.286 159L129.088 161.418H131.682L129.583 162.913L130.385 165.332L128.286 163.837L126.187 165.332L126.988 162.913L124.889 161.418H127.484L128.286 159Z" fill="white"/>
<path d="M139 159L139.802 161.418H142.397L140.298 162.913L141.099 165.332L139 163.837L136.901 165.332L137.703 162.913L135.604 161.418H138.198L139 159Z" fill="white"/>
<path d="M149.714 159L150.516 161.418H153.111L151.012 162.913L151.814 165.332L149.714 163.837L147.615 165.332L148.417 162.913L146.318 161.418H148.913L149.714 159Z" fill="white"/>
<path d="M160.428 159L161.23 161.418H163.825L161.726 162.913L162.528 165.332L160.428 163.837L158.329 165.332L159.131 162.913L157.032 161.418H159.627L160.428 159Z" fill="white"/>
<defs>
<linearGradient id="paint0_linear_3137_4" x1="188.03" y1="84.0051" x2="89.1821" y2="194.295" gradientUnits="userSpaceOnUse">
<stop stop-color="#6D678E"/>
<stop offset="1" stop-color="#F6B5CC"/>
</linearGradient>
<linearGradient id="paint1_linear_3137_4" x1="153.835" y1="66.6811" x2="123.376" y2="211.619" gradientUnits="userSpaceOnUse">
<stop stop-color="#6D678E"/>
<stop offset="1" stop-color="#F6B5CC"/>
</linearGradient>
</defs>
</svg>
